<svg version="1.1" id="Layer_1" xmlns="http://www.w3.org/2000/svg" xmlns:xlink="http://www.w3.org/1999/xlink" x="0px" y="0px"
	 width="100%" viewBox="0 0 496 496" enable-background="new 0 0 496 496" xml:space="preserve">
<path fill="#000000" opacity="1.000000" stroke="none" 
	d="
M418.883698,147.124481 
	C418.014496,172.208755 418.516296,196.867401 415.343842,221.397598 
	C409.180206,269.056671 395.282684,313.748383 365.720306,352.459534 
	C342.887329,382.358643 314.092896,405.140411 280.819183,422.476044 
	C272.102905,427.017273 263.197662,431.120667 254.259583,435.177582 
	C252.365967,436.037109 250.642776,436.371521 248.551559,435.456512 
	C220.644409,423.245514 194.047043,408.692383 170.762527,388.939331 
	C133.868607,357.640930 109.975525,317.968567 96.761284,271.539398 
	C90.852478,250.778397 87.703751,229.640106 85.568138,208.248398 
	C82.383453,176.348434 84.101997,144.375031 83.763649,112.432106 
	C83.716469,107.977768 85.542305,105.717461 90.272293,105.574753 
	C97.846382,105.346237 105.275658,102.632385 113.018227,104.702965 
	C116.288567,105.577545 118.757507,102.200966 121.870163,101.874512 
	C130.473083,100.972221 139.006332,99.863708 147.410004,97.639259 
	C150.488205,96.824463 153.157745,95.468033 156.007370,94.276802 
	C161.636353,91.923691 168.168213,88.199707 173.436371,89.301140 
	C182.437210,91.182976 188.412674,85.440102 195.821930,83.747002 
	C204.042908,81.868416 211.841919,78.241142 219.608154,74.763710 
	C225.516464,72.118187 231.999252,70.889977 237.798050,67.876083 
	C240.152206,66.652534 242.209274,65.329903 243.972458,63.090919 
	C246.918625,59.349747 251.031097,58.533619 255.649719,60.455776 
	C273.171051,67.747726 290.567566,75.356552 308.571442,81.436638 
	C337.475800,91.197922 366.885956,98.838989 397.186493,102.820435 
	C402.630707,103.535789 408.024261,104.658646 413.476898,105.280258 
	C417.246521,105.709999 418.399200,107.493332 418.455811,111.186729 
	C418.637115,123.009071 417.933563,134.843643 418.883698,147.124481 
M155.595596,352.395081 
	C144.659866,338.805054 134.547928,324.671753 126.742958,308.201721 
	C126.221893,306.797394 125.812096,305.339233 125.163078,303.996765 
	C115.183952,283.355591 109.293846,261.365295 105.001213,239.038559 
	C101.390160,220.256927 99.471046,201.165329 99.642380,181.945084 
	C99.744255,170.516464 99.661034,159.086197 99.661034,147.656662 
	C99.111290,153.785385 98.702286,159.874237 97.522453,166.949097 
	C96.050606,163.345764 95.929108,160.703171 95.918488,158.034439 
	C95.876717,147.536194 95.826706,137.037979 95.754547,126.539909 
	C95.744278,125.045746 95.878441,123.462791 95.440582,122.081009 
	C94.858704,120.244759 94.107925,117.755943 91.875381,117.825905 
	C89.263832,117.907753 89.272667,120.529480 89.309578,122.488220 
	C89.826897,149.940323 88.260223,177.385269 90.570831,204.865051 
	C92.268188,225.051392 96.034042,244.675430 100.839241,264.262756 
	C107.014359,289.434204 117.390526,312.716125 130.980698,334.639648 
	C146.964294,360.424133 168.683655,380.619263 193.384232,397.802185 
	C207.479980,407.607880 222.871811,415.234772 237.749039,423.723694 
	C245.119141,427.929047 252.062271,430.317139 260.534424,424.841583 
	C269.282379,419.187836 279.347107,415.619110 288.517853,410.561798 
	C305.795349,401.033783 321.186554,388.976562 336.014679,375.901184 
	C358.618988,355.968933 375.006012,331.727478 387.417297,304.772614 
	C403.566803,269.699158 410.610168,232.205154 412.409485,193.914810 
	C413.636108,167.811691 412.577393,141.603134 412.661896,115.442123 
	C412.673676,111.795769 411.317535,110.358261 407.704712,110.311844 
	C401.032013,110.226135 394.467957,109.162140 387.894836,107.952950 
	C367.803925,104.257042 348.122528,98.495804 327.785400,96.067268 
	C325.375244,95.779465 323.220001,94.763580 321.496826,93.240799 
	C319.159363,91.175186 316.457520,90.100700 313.596497,89.140961 
	C295.131531,82.946854 276.985168,75.915504 259.016083,68.408798 
	C257.153931,67.630875 255.184555,65.212128 253.140167,66.930771 
	C251.244370,68.524529 252.285706,71.324287 252.149139,73.597183 
	C252.032822,75.533051 253.317200,76.634880 254.915588,77.372231 
	C258.692413,79.114540 262.455933,80.893478 266.295776,82.486702 
	C267.471680,82.974609 269.367920,83.541954 270.092255,82.982574 
	C272.944977,80.779480 275.587891,82.143021 278.138550,83.083145 
	C294.473633,89.103905 310.761658,95.187004 327.549164,99.955475 
	C339.382904,103.316841 351.093750,107.034523 363.154938,109.589630 
	C375.352020,112.173515 387.539337,115.041512 399.947998,115.981277 
	C405.397675,116.394005 406.229340,118.430717 406.277893,122.931114 
	C406.349945,129.602829 404.890320,136.309006 405.471680,142.831055 
	C407.329254,163.671265 406.290955,184.455643 404.699463,205.177643 
	C404.085144,213.176483 403.718475,221.322357 398.935944,229.110886 
	C395.289093,235.049835 395.873840,243.536743 394.356171,250.844452 
	C391.497101,264.611206 387.124390,277.957306 382.686157,291.291779 
	C385.814453,287.131714 386.317749,281.581909 390.006104,276.938812 
	C392.731812,293.548004 359.621399,347.352478 346.803345,355.344574 
	C347.401337,350.556702 352.317200,348.564850 353.304230,343.524811 
	C349.335724,348.165253 346.002594,352.285736 342.438019,356.195160 
	C317.628632,383.404572 286.950104,402.167847 253.970123,417.635895 
	C251.476303,418.805542 249.439255,418.136597 247.318192,417.152954 
	C227.017609,407.738373 207.636978,396.738251 189.603027,383.445557 
	C177.356918,374.419006 166.715332,363.612579 155.595596,352.395081 
M144.560120,328.011200 
	C150.246338,336.639435 156.349396,344.956940 163.338928,352.580872 
	C186.916046,378.297852 215.728333,396.568756 247.002914,411.343079 
	C249.617401,412.578186 251.897339,412.592987 254.581299,411.379944 
	C265.979095,406.228516 276.996521,400.386414 287.666046,393.870453 
	C310.162781,380.131348 330.388336,363.710327 346.750885,342.913116 
	C380.640717,299.838226 393.350342,249.434280 396.557343,195.998383 
	C397.663696,177.564285 397.305603,159.041046 397.553253,140.557663 
	C397.606689,136.570251 397.462708,132.575546 397.268433,128.591095 
	C397.137726,125.911430 395.768921,124.668816 392.885498,124.225136 
	C383.859650,122.836296 374.861450,121.215790 365.911346,119.395897 
	C327.783447,111.643066 291.065552,99.472427 255.490433,83.793411 
	C252.738937,82.580750 250.329849,82.385391 247.422592,83.612206 
	C228.887009,91.433868 210.134308,98.641457 191.015396,104.999107 
	C165.186829,113.587929 138.759766,119.397285 112.022118,124.033508 
	C105.089218,125.235657 105.034859,125.042397 105.014503,131.978455 
	C104.973984,145.788101 105.060791,159.598969 104.904121,173.407166 
	C104.751190,186.886703 105.534592,200.323334 107.042191,213.687134 
	C108.379753,225.543732 110.442276,237.287201 112.972710,249.001480 
	C119.008522,276.943390 128.623291,303.316620 144.560120,328.011200 
M402.364197,135.601974 
	C402.364197,142.279617 402.364197,148.957260 402.364197,155.634903 
	C403.464691,148.222626 404.861816,140.806244 402.367615,133.452423 
	C402.367615,133.948715 402.367615,134.445007 402.364197,135.601974 
z"/>
<path fill="#000000" opacity="1.000000" stroke="none" 
	d="
M155.777802,352.665802 
	C156.016830,354.175751 156.977448,355.512085 155.588821,356.604828 
	C144.673294,351.002472 114.863235,301.564270 116.710686,291.078308 
	C121.922745,296.198273 122.514496,303.323090 126.667305,308.690063 
	C134.547928,324.671753 144.659866,338.805054 155.777802,352.665802 
z"/>
<path fill="#000000" opacity="1.000000" stroke="none" 
	d="
M199.323242,302.434967 
	C196.592377,299.986755 196.598053,296.880157 196.377533,293.932465 
	C190.443832,294.987762 187.359131,298.456299 187.332458,304.017181 
	C187.284500,314.016632 187.381317,324.016937 187.309311,334.016113 
	C187.296021,335.863129 188.088440,338.048309 186.047546,339.449463 
	C184.172379,339.200989 183.845840,337.905396 184.050095,336.520386 
	C185.449081,327.033966 183.618088,317.580200 183.788589,308.098938 
	C183.896454,302.100250 183.959137,296.508728 189.588760,292.590637 
	C191.409332,291.323578 192.588303,289.134613 194.242996,287.148651 
	C191.710098,284.763794 188.720062,284.603638 186.375900,286.048676 
	C183.364655,287.904938 180.270111,290.121582 180.314041,294.539551 
	C180.413467,304.538147 180.098572,314.545563 180.406601,324.535400 
	C180.556549,329.398438 179.530380,333.260406 175.654617,336.418488 
	C173.628677,338.069244 171.860825,340.105713 171.079956,342.836700 
	C170.560654,344.652893 169.365036,346.259003 167.164612,345.999084 
	C165.356979,345.785553 164.141678,344.471863 163.907898,342.678772 
	C163.636795,340.599457 164.822784,339.019104 166.691452,338.436340 
	C170.287628,337.314789 172.459122,334.584534 174.689911,331.910797 
	C176.341599,329.931183 177.288406,327.693115 175.908417,324.707855 
	C169.886200,328.000732 166.636536,334.752136 160.309158,337.931946 
	C159.182617,334.808441 160.967041,333.891815 162.020844,332.804321 
	C165.724838,328.981842 169.488235,325.209869 173.372513,321.571869 
	C175.585297,319.499390 176.755493,317.215546 176.699921,314.123810 
	C176.580109,307.459320 176.663849,300.791290 176.659195,294.124695 
	C176.654633,287.607117 180.884262,282.547394 187.387299,281.234009 
	C188.927307,280.922974 190.802811,281.276917 191.677582,279.356171 
	C182.840347,276.392273 171.721313,283.850525 171.419464,293.024780 
	C171.233185,298.685883 171.178970,304.361725 171.367325,310.020905 
	C171.480957,313.434753 170.512329,316.054108 168.064484,318.485107 
	C164.688202,321.838135 160.430756,324.472351 158.913773,329.485992 
	C158.460342,330.984558 156.707352,331.438843 155.083221,331.116577 
	C153.446869,330.791931 152.435333,329.683929 152.110245,328.106384 
	C151.759613,326.404968 152.725723,325.079987 154.094742,324.407104 
	C156.183426,323.380554 158.243866,322.452148 160.061218,320.890045 
	C165.657700,316.079681 169.350769,310.607666 167.754913,302.737183 
	C167.397766,300.975800 167.995102,299.022369 167.646240,297.257538 
	C165.745743,287.642975 170.861313,281.558044 177.778946,276.187225 
	C179.778687,274.634644 181.872070,274.103943 184.258957,274.109222 
	C188.175476,274.117889 192.092026,274.111572 196.017899,273.558807 
	C192.821884,272.181732 189.385727,273.114258 186.268295,272.517517 
	C177.326355,270.805847 172.181076,275.921478 166.773178,281.604431 
	C163.671219,284.864136 161.862106,288.013855 162.305801,292.586090 
	C162.642197,296.052490 162.446259,299.582336 162.325943,303.078400 
	C162.162460,307.828857 159.276901,310.885468 154.601166,311.150085 
	C151.922684,311.301727 149.352127,311.417145 146.889648,312.770203 
	C145.184158,313.707336 143.306305,313.519379 141.950272,311.784454 
	C140.878128,310.412720 140.981644,308.982758 141.944778,307.630341 
	C143.349365,305.658081 145.062622,305.732300 147.219421,306.555054 
	C155.752487,309.810089 158.922913,307.533112 158.873688,298.394226 
	C158.828796,290.059326 154.555176,287.572235 147.089233,291.680939 
	C145.033890,292.812042 143.185226,293.783691 141.286148,291.725159 
	C140.046768,290.381683 139.679504,288.714447 140.809189,287.152924 
	C142.531326,284.772522 144.740524,285.150024 147.030472,286.323761 
	C151.668365,288.700928 155.396301,287.923553 158.922913,283.795807 
	C162.916306,279.121765 167.604599,275.049072 171.820938,270.555542 
	C175.396561,266.744904 180.017471,268.926056 184.101639,268.105255 
	C186.580505,267.607025 189.294479,268.590912 192.321487,267.128754 
	C188.934021,264.487610 185.515778,265.821960 182.418961,265.351379 
	C175.397583,264.284393 169.721664,266.303436 165.494553,272.207367 
	C160.570099,279.085297 153.852219,281.427094 145.487442,280.462799 
	C141.470901,279.999786 137.215332,279.613831 133.326324,282.023712 
	C131.663742,283.053955 129.652756,282.393494 128.435135,280.731140 
	C127.339890,279.235870 127.484657,277.520996 128.631042,276.091858 
	C129.989700,274.398132 131.757751,274.510895 133.612411,275.286682 
	C140.197723,278.041107 147.081161,276.507477 153.808029,276.365479 
	C156.879562,276.300690 158.836594,273.061279 160.534653,270.753357 
	C166.259384,262.972595 173.711136,260.350159 183.090332,261.558960 
	C187.430618,262.118317 191.901352,261.859833 196.176331,260.291260 
	C186.843887,258.783997 177.410095,258.898254 168.137436,259.783691 
	C163.577560,260.219086 160.576645,265.029541 157.514099,268.473389 
	C154.321030,272.063965 150.493576,272.563751 146.213882,272.229584 
	C145.033585,272.137421 143.881790,271.871338 143.592468,270.499695 
	C143.588181,269.409546 144.327606,268.629272 145.081757,268.760620 
	C152.123260,269.987396 155.864944,265.020660 159.465225,260.629272 
	C163.445572,255.774323 168.071793,254.601929 174.010941,255.161362 
	C180.294327,255.753204 186.656189,255.524857 192.984344,255.616211 
	C194.091125,255.632187 195.345078,255.781448 195.946442,254.346695 
	C194.694809,252.563339 192.864853,253.314499 191.351334,253.312454 
	C182.189636,253.300049 173.027634,253.482941 163.865967,253.467133 
	C158.271439,253.457489 155.423126,257.897217 151.959213,260.981750 
	C149.218750,263.422119 146.650528,264.371429 143.095535,264.420410 
	C137.883926,264.492157 132.469238,263.093811 127.498085,266.167450 
	C126.216423,266.959900 124.547668,266.371796 123.564430,264.913879 
	C122.533058,263.384613 122.412323,261.797913 123.451965,260.244843 
	C124.403854,258.822937 126.106003,258.143829 127.388756,258.880981 
	C131.920990,261.485504 136.791092,260.290253 141.528915,260.664795 
	C144.980087,260.937592 147.807022,259.944031 149.954453,257.311707 
	C151.770401,255.085693 155.294861,253.925537 155.092941,250.452988 
	C154.950989,248.011765 146.664948,241.086960 143.979965,241.202148 
	C136.762161,241.511734 129.329636,239.392624 122.366776,242.981369 
	C120.772522,243.803085 119.412308,242.969589 118.390152,241.774704 
	C117.365715,240.577179 116.973442,239.163528 117.667984,237.594574 
	C118.397888,235.945724 119.939980,235.200897 121.348206,235.737320 
	C129.751907,238.938507 138.450943,237.003693 147.003479,237.471573 
	C149.661728,237.616989 151.016937,239.762451 152.525299,241.432648 
	C157.088379,246.485306 161.947891,249.280518 169.433014,248.258072 
	C177.103836,247.210281 185.060562,247.402115 192.870346,248.454224 
	C193.930115,248.596985 195.179916,248.966415 195.972046,247.759232 
	C195.477631,245.835098 194.127609,246.648911 193.111160,246.721527 
	C184.953094,247.304352 176.791199,247.037247 168.627686,246.938278 
	C166.103790,246.907684 164.175613,245.925446 162.467682,244.152222 
	C160.273178,241.873779 157.863022,239.797043 155.739868,237.457291 
	C152.956390,234.389832 150.048645,231.861801 145.478943,232.521606 
	C144.720398,232.631119 143.866241,232.170212 143.164886,230.476807 
	C147.233566,229.367462 150.956955,228.829498 154.732483,231.033173 
	C154.873260,231.115356 155.010696,231.233887 155.100540,231.368332 
	C162.453094,242.369049 173.444794,243.099228 185.119095,242.143387 
	C187.921753,241.913925 190.775940,242.243851 193.601944,242.398560 
	C195.063095,242.478531 196.253357,242.362473 196.421936,240.292068 
	C189.437088,240.292068 182.564484,240.122131 175.705750,240.357162 
	C171.726730,240.493515 168.514496,239.423965 165.960419,236.389648 
	C165.853683,236.262863 165.696915,236.174271 165.604935,236.039566 
	C158.447479,225.559509 148.423492,222.404755 136.261429,224.316193 
	C130.640366,225.199646 124.606468,222.764679 119.301933,226.619690 
	C117.959343,227.595413 116.352249,226.703476 115.337944,225.447769 
	C114.211304,224.052963 113.901985,222.414825 114.805908,220.785416 
	C115.709511,219.156586 117.323006,218.244797 119.018532,218.851105 
	C128.750153,222.330963 138.795105,220.309555 148.672272,220.467499 
	C154.353424,220.558365 158.962875,221.980331 162.183838,226.425613 
	C167.933899,234.361298 175.376495,237.538528 185.019485,235.915543 
	C188.685867,235.298477 192.498291,236.631180 196.612198,235.515686 
	C194.972748,232.828156 192.608353,233.746689 191.064804,234.042343 
	C178.812210,236.389130 170.176224,231.154053 162.721909,221.941391 
	C157.924454,216.012268 151.844162,211.138107 146.776077,205.404633 
	C143.749496,201.980667 140.479706,201.152832 136.173309,201.483154 
	C130.038223,201.953751 123.859657,201.886368 117.698593,201.970154 
	C116.083824,201.992111 114.321327,202.093430 113.305046,200.298325 
	C114.105881,198.110321 116.029976,198.709579 117.552773,198.685715 
	C125.205742,198.565857 132.861801,198.624695 140.513824,198.472794 
	C143.774002,198.408096 146.363632,199.592789 148.442291,201.955078 
	C151.280533,205.180664 154.026062,208.487839 156.811340,211.760040 
	C157.426025,211.382401 158.040695,211.004745 158.655380,210.627106 
	C158.655380,206.731339 158.811508,202.827286 158.605042,198.942490 
	C158.445419,195.939102 156.200043,195.331696 153.599594,195.336487 
	C145.766815,195.350952 137.931686,195.185669 130.102127,195.335037 
	C126.857605,195.396927 124.352028,194.472443 122.103470,192.130859 
	C119.732857,189.662094 117.680298,186.787796 113.712234,186.283417 
	C111.810799,186.041748 110.950958,183.907623 111.082703,181.953934 
	C111.210617,180.057205 112.564980,179.028732 114.396812,178.773315 
	C116.433640,178.489288 118.060013,179.215012 118.834419,181.192032 
	C121.965462,189.185318 127.598213,192.608795 136.293808,191.802811 
	C142.242615,191.251419 148.284668,191.639877 154.283691,191.715500 
	C160.178452,191.789810 162.262207,193.986542 162.339828,199.961121 
	C162.346313,200.461044 162.432281,200.980179 162.330521,201.458298 
	C159.817429,213.266678 166.147537,220.969818 174.514343,227.719772 
	C175.279816,228.337326 176.186249,229.348831 176.963745,229.293045 
	C183.298523,228.838501 189.654419,228.949203 195.998154,228.179977 
	C192.171097,228.179977 188.338181,228.048828 184.518784,228.219925 
	C181.245758,228.366562 179.156357,226.713318 176.639389,224.828384 
	C168.655731,218.849594 167.000580,211.085693 167.513519,201.637115 
	C168.181686,189.329697 156.975891,178.463364 144.685806,178.329636 
	C143.185974,178.313309 141.660110,178.138702 140.190186,178.346954 
	C132.186920,179.480927 125.486275,177.589142 120.703850,170.574554 
	C119.462830,168.754318 117.418411,167.849609 115.271103,167.223373 
	C112.961571,166.549835 112.335388,164.810059 112.557831,162.535553 
	C112.750031,160.570251 113.739799,159.420441 115.641815,159.213150 
	C118.044693,158.951294 118.966003,160.551834 120.035088,162.461685 
	C124.057472,169.647507 128.820847,175.104401 138.510284,174.831863 
	C157.200424,174.306137 157.197464,174.739029 169.508881,188.677536 
	C171.038330,190.409119 171.631805,192.180862 171.564133,194.550720 
	C171.426575,199.367844 171.591553,204.207336 171.899765,209.020462 
	C172.474442,217.995789 180.294220,224.439911 189.143387,223.400665 
	C190.763931,223.210358 192.376480,222.952026 194.238434,222.690582 
	C192.761154,220.908112 190.928604,220.627853 189.165329,220.362030 
	C180.300568,219.025589 175.838379,214.553238 176.750687,205.958160 
	C177.895248,195.174622 174.923782,187.092499 166.540344,179.701248 
	C160.121429,174.042038 154.182861,169.754211 145.449753,171.369705 
	C140.606857,172.265564 137.830475,168.721298 134.401825,166.631363 
	C133.080917,165.826218 132.802841,164.198959 133.687164,162.480988 
	C138.698517,161.778366 140.803375,170.610214 147.209732,166.158386 
	C144.266144,162.979721 141.480545,159.784012 138.494766,156.787796 
	C132.850296,151.123596 127.060371,145.604523 121.398430,139.957413 
	C119.790451,138.353653 117.778336,137.736694 115.793266,136.883163 
	C113.894241,136.066620 112.402306,134.590530 112.962044,132.184647 
	C113.380264,130.387070 114.720711,129.286438 116.460701,129.015701 
	C118.613556,128.680740 119.874573,130.017380 120.548569,131.913681 
	C121.595390,134.858917 123.779640,136.927643 125.927307,139.021484 
	C134.035446,146.926407 142.191422,154.782623 150.256409,162.731201 
	C152.544739,164.986511 154.812531,166.976120 158.151855,167.636414 
	C161.256454,168.250305 162.831741,171.243439 165.216263,173.013641 
	C176.256805,181.209869 183.304092,191.106415 180.472260,205.914902 
	C179.665833,210.132034 183.691223,215.673462 187.511673,216.134689 
	C191.453415,216.610565 196.188049,218.718811 200.035767,212.474854 
	C197.097687,209.934341 194.026291,207.215240 190.884705,204.579819 
	C187.729599,201.933105 186.022049,198.722794 186.666763,194.517792 
	C187.582611,188.544495 185.108505,184.298798 180.806549,180.148804 
	C164.866089,164.771576 149.260773,149.046402 133.582336,133.399033 
	C132.274460,132.093735 130.210281,131.021942 131.152924,127.131981 
	C141.339417,135.347198 149.299133,144.917175 158.261749,153.372055 
	C167.325211,161.922089 176.219376,170.651566 185.507996,179.611404 
	C187.645370,175.688095 186.259094,173.042160 183.775299,170.561096 
	C176.585159,163.378906 169.474792,156.115707 162.213516,149.006454 
	C159.648819,146.495468 158.522263,143.746002 158.614548,140.126572 
	C158.741669,135.141068 158.369629,130.142868 158.212555,125.150070 
	C158.155365,123.332420 157.889053,121.416344 160.278961,120.646408 
	C162.822845,121.649818 162.513214,123.997803 162.183929,125.743881 
	C159.693588,138.949783 164.524902,148.883957 175.091675,156.695496 
	C178.721619,159.378967 181.292297,163.409973 185.390030,165.911133 
	C186.402145,163.299286 184.609573,162.205292 183.426178,160.965729 
	C180.667023,158.075607 178.071228,154.924911 174.906067,152.550522 
	C169.610199,148.577728 167.149933,142.106277 170.109711,137.768738 
	C174.698959,131.043243 170.984863,123.447708 174.277496,117.216797 
	C175.068527,117.216797 175.590515,117.085724 175.690887,117.236069 
	C177.864502,120.492546 177.743286,134.260117 175.292862,137.222260 
	C172.272736,140.873047 172.643845,144.123077 175.764679,147.377213 
	C177.838867,149.539993 179.563171,152.231949 182.010178,153.808273 
	C190.239166,159.109329 191.043106,166.891907 190.505890,175.594986 
	C190.117020,181.894608 190.707184,188.248306 190.593414,194.573105 
	C190.489960,200.324402 194.212372,202.939484 198.794907,205.290817 
	C191.803772,198.065979 195.130386,189.245056 194.742996,181.124435 
	C194.322586,172.311523 194.512054,163.459076 194.727982,154.630997 
	C194.824814,150.672470 193.963470,147.410278 190.750366,144.952744 
	C184.985687,140.543625 182.509354,134.874496 183.580719,127.547691 
	C184.004745,124.647789 183.959946,121.642967 182.000656,118.927750 
	C180.671692,117.086037 181.417526,115.042534 183.035141,113.529274 
	C184.427292,112.226921 186.161255,112.133972 187.613464,113.245850 
	C189.566422,114.741096 189.713531,116.730598 188.875412,119.067673 
	C185.790787,127.669052 185.966293,135.718765 193.787201,141.938599 
	C197.525467,144.911606 198.702759,148.427109 198.533615,153.217346 
	C198.122147,164.870438 198.977707,176.594147 198.097443,188.196426 
	C197.425308,197.055359 201.937714,202.033020 208.326569,207.057266 
	C210.658600,199.290894 209.574600,191.604797 209.438370,184.132950 
	C209.230331,172.722198 212.343307,162.809052 219.548752,154.102524 
	C221.035446,152.306122 221.986374,150.584488 220.779053,148.240936 
	C220.415359,147.534943 220.153809,146.539307 220.353455,145.816696 
	C222.416962,138.347885 218.449951,133.657028 213.267670,129.182373 
	C208.484222,125.052116 204.078049,120.478951 199.589493,116.016594 
	C198.140823,114.576385 196.051025,113.241425 197.291199,110.524948 
	C199.567703,109.520554 200.653824,111.329933 201.868439,112.525017 
	C208.161301,118.716759 214.316284,125.050797 220.688522,131.158707 
	C223.512222,133.865280 223.952774,137.168274 224.185852,140.707245 
	C224.348709,143.180084 224.679672,145.641861 224.962677,148.369858 
	C229.075867,147.025284 229.633545,144.792053 230.089584,140.676666 
	C231.240799,130.287598 226.472855,123.687096 219.083298,117.799225 
	C216.361603,115.630615 214.029480,112.965088 211.577164,110.469719 
	C210.335342,109.206078 208.799637,108.035721 209.127075,105.051697 
	C215.559174,106.679008 217.778885,113.469849 223.481018,115.975800 
	C224.122696,112.381119 224.425278,109.115646 223.018021,105.999779 
	C221.963348,103.664574 221.511078,101.528046 223.639877,99.649879 
	C224.898773,98.539192 226.442032,98.425545 227.763763,99.513077 
	C229.962189,101.321953 229.252457,103.492943 228.633682,105.872246 
	C226.866165,112.668564 225.213684,119.570007 231.639969,125.132103 
	C233.538162,126.775017 233.223175,129.001236 233.332825,131.153778 
	C233.533142,135.086151 232.604141,139.162415 234.864044,143.286591 
	C238.346115,141.888153 241.962463,141.023239 245.725418,140.807938 
	C247.980591,140.678879 248.691055,139.175323 248.682526,137.001770 
	C248.634140,124.669586 248.656509,112.337051 248.687805,100.004715 
	C248.692245,98.255745 247.909439,96.803200 247.271393,95.268005 
	C246.477753,93.358482 246.835052,91.630905 248.514435,90.362656 
	C249.989883,89.248421 251.656143,89.141655 253.153763,90.256271 
	C254.921921,91.572258 255.313171,93.259598 254.801636,95.535332 
	C251.589920,109.823708 253.735184,124.282181 253.788986,138.666275 
	C253.799377,141.446686 256.631531,140.606598 258.540039,140.530884 
	C260.363281,131.142929 255.210739,119.218651 268.407471,114.005234 
	C269.649353,116.431091 268.163818,117.650391 266.977173,118.605598 
	C263.620300,121.307823 262.947632,124.807793 263.077393,128.842972 
	C263.162170,131.479248 262.906464,134.191956 262.341858,136.769363 
	C261.321533,141.427109 263.226593,143.210770 267.840118,143.183807 
	C269.495117,139.183517 268.433105,135.165588 268.591949,131.259232 
	C268.689575,128.858139 268.793365,126.529869 270.649445,124.802231 
	C276.649536,119.217354 275.220764,112.537880 273.404846,105.880798 
	C272.762787,103.527000 272.037567,101.359337 274.198944,99.488182 
	C275.300171,98.534805 276.612701,98.225372 277.846222,99.219994 
	C280.170837,101.094437 280.197357,103.310356 278.954346,105.910683 
	C277.461151,109.034424 278.115875,112.304092 278.574371,116.641380 
	C282.122986,113.287415 284.913727,110.538559 287.836121,107.937660 
	C289.165558,106.754509 290.479736,103.729080 292.475830,105.833160 
	C294.298615,107.754532 291.448669,109.238632 290.200195,110.531364 
	C285.802826,115.084709 281.364136,119.609032 276.739044,123.927971 
	C273.461792,126.988312 271.770020,130.417267 272.203369,134.975418 
	C272.421967,137.274658 272.358185,139.688858 271.899445,141.944778 
	C271.107391,145.839676 273.141052,146.969177 276.154358,147.437714 
	C278.088562,146.142197 277.803986,144.365707 277.697418,142.749451 
	C277.318420,137.000946 279.454346,132.561569 283.784363,128.710892 
	C289.630737,123.511696 295.074310,117.860260 300.709930,112.422752 
	C301.755219,111.414238 302.671936,110.070084 304.551270,110.495735 
	C305.961426,112.763428 303.901611,113.827072 302.758575,114.987144 
	C296.794128,121.040451 290.785797,127.053429 284.668793,132.951904 
	C282.365326,135.173050 281.464661,137.597122 281.160858,140.826050 
	C280.481720,148.044098 281.869873,154.085007 286.552155,160.046616 
	C292.922363,168.157394 292.794403,178.355164 292.953674,188.205811 
	C293.018402,192.204651 292.969452,196.206345 293.095795,200.202835 
	C293.209808,203.807922 294.931641,204.673874 297.942200,202.682159 
	C301.575836,200.278214 303.901886,197.401947 303.793335,192.496429 
	C303.487366,178.669724 303.677856,164.832443 303.617737,150.999557 
	C303.606506,148.415390 303.951324,146.161301 305.971191,144.198776 
	C314.096619,136.304077 322.099030,128.282913 330.171539,120.333473 
	C331.190643,119.329910 332.356842,117.598549 333.896729,118.921867 
	C335.744843,120.510071 333.998505,122.041855 332.917267,123.124397 
	C325.977386,130.072723 319.053101,137.044220 311.889069,143.757706 
	C308.620148,146.821045 307.086243,150.047073 307.237793,154.650742 
	C307.572205,164.806412 307.405945,174.980881 307.332825,185.146896 
	C307.278992,192.630402 309.272949,200.708282 299.976013,206.518845 
	C306.619629,205.322708 311.821503,200.025818 311.457062,195.255447 
	C310.892761,187.870010 313.442535,182.565201 318.882111,177.414078 
	C335.207550,161.954437 350.969299,145.899765 366.972504,130.099075 
	C367.989044,129.095413 368.893799,127.677101 370.950958,128.269394 
	C371.996857,130.936768 369.630005,132.088501 368.276428,133.443054 
	C352.376129,149.354843 336.484650,165.277588 320.384552,180.986023 
	C316.785431,184.497589 314.534058,188.067368 315.283112,193.203308 
	C316.015778,198.227036 314.527924,202.387955 310.241180,205.384949 
	C309.568817,205.855042 308.864319,206.449081 308.495667,207.153748 
	C307.045319,209.925888 301.973724,211.345963 304.758636,215.657898 
	C306.158447,217.825241 314.787231,216.779984 317.381165,214.607910 
	C320.366211,212.108337 322.366394,209.135086 321.639648,205.080994 
	C319.295319,192.003082 324.425873,182.388474 334.893341,174.826447 
	C339.126556,171.768204 342.640289,168.161606 347.792236,165.951218 
	C352.680939,163.853806 356.279236,158.670990 360.337494,154.734131 
	C366.315033,148.935333 372.159637,142.999359 378.143372,137.207077 
	C379.888550,135.517700 380.881104,133.518097 381.744324,131.318024 
	C382.422180,129.590454 383.958618,128.851089 385.815674,129.208130 
	C387.210968,129.476395 388.212677,130.393051 388.715240,131.718536 
	C389.421936,133.582382 388.610626,135.255783 387.120239,136.034210 
	C376.509735,141.576080 370.086578,151.725754 361.289917,159.245483 
	C358.908997,161.280762 356.393616,163.158646 353.414978,165.526062 
	C358.146790,168.454727 360.589355,167.760239 363.000641,165.329697 
	C369.804108,158.471924 376.683502,151.688889 383.582062,144.926453 
	C385.196259,143.344101 386.640564,141.368484 389.270172,141.226303 
	C390.928253,143.595200 388.934296,144.671158 387.772919,145.840393 
	C380.023895,153.641998 372.170624,161.340469 364.456818,169.176407 
	C362.466797,171.197937 360.131714,171.760849 357.619110,171.346054 
	C348.310303,169.809418 341.058350,173.070862 335.433350,180.426193 
	C335.232605,180.688690 334.993622,180.938049 334.727722,181.132294 
	C327.227386,186.610962 324.512665,193.739090 325.177704,203.162048 
	C326.049469,215.513992 324.204407,217.244583 312.156799,220.972885 
	C311.746185,221.099960 311.429871,221.531845 310.336792,222.411102 
	C315.123169,223.848709 318.558502,224.303650 322.681976,221.200989 
	C330.596008,215.246155 331.563263,207.302887 330.576019,198.605530 
	C329.934601,192.954376 332.388214,189.277588 335.929688,185.021683 
	C342.996277,176.529526 351.285095,172.893005 362.058807,174.642609 
	C372.451508,176.330353 377.995087,170.148010 382.333679,162.114716 
	C383.297577,160.329895 384.313721,159.028610 386.536560,159.447388 
	C388.224518,159.765396 389.116516,160.779541 389.265900,162.523331 
	C389.438995,164.544220 389.012054,166.299286 386.886078,166.916428 
	C384.011353,167.750900 381.772156,169.547119 380.061768,171.765030 
	C375.911987,177.146317 370.688354,179.455582 363.968658,178.331848 
	C363.644562,178.277634 363.289093,178.389175 362.971924,178.318039 
	C350.491211,175.518799 343.198608,183.268478 336.138153,191.497635 
	C334.888977,192.953568 334.349762,194.583038 334.401154,196.544846 
	C334.514587,200.872726 334.110291,205.239746 334.546295,209.526810 
	C335.044830,214.428299 333.060974,217.800781 329.523926,220.793213 
	C321.701080,227.411575 321.740784,227.458511 312.198212,228.516403 
	C324.226379,230.331635 333.112091,226.218002 338.693329,216.199844 
	C340.069580,213.729507 339.367828,210.966125 339.546112,208.341080 
	C339.737701,205.520386 339.555450,202.676514 339.633026,199.845413 
	C339.781952,194.410446 342.109192,191.899261 347.540131,191.774033 
	C354.535858,191.612778 361.565033,191.342438 368.529968,191.830399 
	C375.983154,192.352570 379.820740,188.040802 382.849457,182.422272 
	C384.048370,180.198181 385.015259,178.203644 387.941864,178.742477 
	C389.534332,179.035660 390.773865,180.080780 390.961761,181.696960 
	C391.293976,184.553986 389.512695,185.862808 386.970886,186.510681 
	C385.126007,186.980942 383.636108,188.193817 382.528564,189.624512 
	C378.649750,194.635071 373.536255,195.728119 367.503693,195.360870 
	C361.195160,194.976822 354.842621,195.362473 348.510406,195.300369 
	C344.995758,195.265900 343.206329,196.801437 343.220917,200.359360 
	C343.234955,203.779846 343.223969,207.200439 343.223969,211.376373 
	C348.031158,208.305573 350.752716,204.470032 354.162201,201.404648 
	C355.664398,200.054077 357.051666,198.668976 359.292511,198.681046 
	C368.291290,198.729553 377.290344,198.718338 386.289124,198.766708 
	C387.243744,198.771835 388.340729,198.700821 389.010986,200.301697 
	C387.144592,202.224686 384.548615,201.683182 382.329163,201.623398 
	C358.885437,200.991898 358.906555,200.975586 342.892670,218.055664 
	C338.566101,222.670288 333.987610,227.050110 329.700836,231.700073 
	C327.615997,233.961594 325.073151,234.062454 322.397858,234.135559 
	C318.495789,234.242188 314.549377,233.508377 309.944885,234.488541 
	C320.171387,238.071655 330.733643,236.015076 337.063782,228.865326 
	C342.408142,222.829010 348.316956,219.548492 356.670380,220.546036 
	C362.258789,221.213364 367.988647,220.690308 373.655182,220.712067 
	C376.650055,220.723557 379.606079,220.850433 382.371948,219.189743 
	C384.034637,218.191406 385.692963,218.923843 386.666870,220.522507 
	C387.579224,222.020065 387.696747,223.752914 386.609741,225.231323 
	C385.472443,226.778122 383.866089,226.882950 382.120605,226.242569 
	C371.285400,222.267303 360.094238,225.077332 349.076233,224.577057 
	C347.669830,224.513199 346.699707,225.713501 345.878571,226.774902 
	C337.824799,237.184982 327.874573,243.116364 314.163544,240.406097 
	C313.334930,240.242294 312.164062,239.966507 311.237427,241.518829 
	C319.280853,242.918472 327.289215,242.800049 334.921021,241.630142 
	C339.586182,240.914993 342.463013,235.402115 346.185944,232.093063 
	C349.516785,229.132523 358.474274,228.593536 362.957520,231.324844 
	C360.811951,233.356232 358.111359,232.608078 355.857880,232.750809 
	C352.292419,232.976654 349.116425,233.849731 347.101532,236.749329 
	C340.672028,246.001831 331.813904,248.782364 321.082733,247.176224 
	C319.484314,246.936981 317.819244,247.142929 316.182709,247.488770 
	C323.968384,248.088715 331.771118,247.706833 339.557281,248.348175 
	C343.509491,248.673706 345.765625,245.191422 347.986023,242.704086 
	C351.528290,238.735931 355.487488,237.455994 360.738770,237.502838 
	C367.089539,237.559540 373.676605,239.038345 379.833740,235.748276 
	C381.262238,234.984970 383.198669,235.408569 384.134644,237.240067 
	C384.885437,238.709259 384.684143,240.225189 383.707123,241.483322 
	C382.568512,242.949493 381.059540,243.336243 379.257477,242.564697 
	C372.031769,239.470978 364.434113,240.738617 357.109283,241.474106 
	C352.347626,241.952194 349.899200,246.955811 346.864044,250.415482 
	C346.601074,250.715256 346.795563,251.846802 347.158722,252.199356 
	C351.091675,256.017548 353.880676,261.543396 360.848083,260.728485 
	C365.393280,260.196869 370.127869,261.511108 374.453674,258.826019 
	C375.753571,258.019104 377.418030,258.698303 378.417877,260.073761 
	C379.510803,261.577148 379.514954,263.177032 378.548798,264.744659 
	C377.629944,266.235596 375.956085,266.859711 374.647949,266.135834 
	C369.135071,263.085266 363.229736,264.605896 357.500183,264.416168 
	C354.813080,264.327209 352.676697,263.760284 350.871735,261.714264 
	C345.853455,256.025909 340.424072,252.157974 331.887451,253.592773 
	C326.402100,254.514740 320.515350,252.779449 314.842529,254.189163 
	C320.815613,255.831619 326.903717,255.742203 332.962311,255.490250 
	C336.037292,255.362366 338.260956,256.198822 340.461243,258.435822 
	C344.908081,262.956818 348.484711,268.640411 356.060120,270.230225 
	C351.814026,272.676849 348.407349,272.763184 346.063110,269.373169 
	C339.675140,260.135559 330.633636,258.180817 320.325500,259.383240 
	C317.305603,259.735474 314.147430,258.788147 310.308868,260.387604 
	C314.641571,262.452942 318.507843,261.906036 322.004883,261.511536 
	C329.346313,260.683380 334.987518,262.930908 339.307587,268.822754 
	C347.151337,279.520386 357.838837,277.585419 368.520874,275.232452 
	C370.509552,274.794464 372.113800,274.584900 373.406494,276.343475 
	C374.391510,277.683533 374.440247,279.164215 373.564056,280.557434 
	C372.528809,282.203583 370.796021,282.705688 369.187775,281.961761 
	C362.616608,278.922180 355.719879,280.662811 348.976624,280.451172 
	C346.280823,280.366577 344.174133,279.817535 342.334015,277.794495 
	C340.206879,275.455841 337.574768,273.536377 335.661804,271.050232 
	C328.886200,262.244690 320.023407,265.864349 311.637421,266.507141 
	C314.704773,268.358398 318.072357,268.631317 321.475647,268.375702 
	C325.749023,268.054749 329.177643,269.294983 332.083771,272.624481 
	C335.579254,276.629181 339.455902,280.300446 343.153625,284.129456 
	C346.661102,287.761444 350.571533,289.055084 355.237396,286.327423 
	C357.129913,285.221069 359.137299,284.836578 360.621124,286.792511 
	C361.784607,288.326202 362.075409,290.256653 360.573669,291.830750 
	C358.837097,293.650970 356.922852,292.987549 355.156799,291.780029 
	C354.034729,291.012817 352.907196,290.496796 351.510742,290.341003 
	C343.880402,289.489960 343.208740,290.048004 343.154175,297.669861 
	C343.148224,298.503052 343.122101,299.336060 343.112671,300.169250 
	C343.036072,306.954926 346.544891,309.439056 353.041870,307.173676 
	C353.980194,306.846497 354.838135,306.244202 355.792267,306.016571 
	C357.602081,305.584778 359.127686,306.199799 360.010956,307.869171 
	C360.764984,309.294312 360.702332,310.780823 359.635834,312.080811 
	C358.528809,313.430237 356.845398,313.746246 355.561340,312.991394 
	C352.812073,311.375153 349.879852,311.418640 346.895477,311.177429 
	C342.544464,310.825745 339.574005,307.252502 339.592926,302.758392 
	C339.595032,302.258484 339.614410,301.758636 339.622162,301.258728 
	C339.871063,285.174988 339.783203,285.270630 327.872711,274.337585 
	C324.725159,271.448303 321.269531,272.767212 317.933990,272.479309 
	C315.587830,272.276733 313.087799,271.969696 310.806793,273.695404 
	C313.036896,273.949829 315.277252,274.479034 317.494812,274.396545 
	C321.155701,274.260498 323.537964,276.216492 326.280762,278.271606 
	C332.953796,283.271576 335.621063,289.582947 334.379974,297.749359 
	C334.107269,299.543884 334.531158,301.445557 334.248871,303.237152 
	C332.590057,313.765045 338.449188,319.631897 346.898224,323.932739 
	C348.657135,324.828125 349.981750,326.059998 349.801300,328.152344 
	C349.656281,329.834167 348.418854,330.800690 346.830933,331.101501 
	C344.704529,331.504364 343.165375,330.431610 342.519257,328.531342 
	C341.271393,324.861450 338.701385,322.188446 335.785583,320.033356 
	C331.745758,317.047607 330.160889,313.480713 330.583069,308.460449 
	C331.000427,303.496796 330.521057,298.464478 330.687775,293.470703 
	C330.802002,290.048706 329.255646,287.694244 327.309845,284.998413 
	C322.166138,277.872040 315.584625,277.242676 307.814392,279.516815 
	C309.772278,280.707733 311.755951,281.335480 313.917816,281.607300 
	C320.493652,282.434174 325.447571,288.198578 325.354095,294.721710 
	C325.296783,298.720795 325.831818,302.796204 325.236847,306.705841 
	C323.936890,315.247375 327.615112,321.290009 333.572235,326.798187 
	C336.617645,329.614105 340.515106,331.925995 342.315369,337.579956 
	C335.222382,334.712738 332.323303,328.355164 326.941895,325.269653 
	C325.048523,329.647125 327.386353,334.151489 333.410492,337.676666 
	C334.552551,338.344971 335.886688,338.748077 336.895081,339.565918 
	C338.150909,340.584503 338.587311,342.057190 337.762543,343.608307 
	C337.042816,344.961853 336.103607,346.193176 334.416290,346.300507 
	C332.699829,346.409698 331.456055,345.460602 331.043182,343.883881 
	C330.527863,341.916107 330.100159,339.890564 328.392639,338.659393 
	C322.250702,334.230743 321.265167,328.106659 321.618073,321.025116 
	C322.057098,312.214874 321.763000,303.363220 321.637878,294.531525 
	C321.558990,288.961609 315.862488,284.475952 310.377747,285.381989 
	C309.155365,285.583954 308.059723,285.825348 307.671417,287.165985 
	C307.255981,288.600281 308.241638,289.310272 309.245544,289.951447 
	C316.478638,294.570801 318.811737,301.183899 318.104584,309.582947 
	C317.449097,317.368011 317.657166,325.225372 317.469147,333.050537 
	C317.445953,334.015808 317.582275,335.088318 316.127441,335.707184 
	C314.038422,334.769409 314.722717,332.703308 314.707642,331.092682 
	C314.625031,322.260437 314.674896,313.427002 314.657135,304.594025 
	C314.645447,298.776978 312.383759,295.711395 305.611450,293.240936 
	C306.479797,299.586334 302.163116,302.891144 298.304657,306.443146 
	C297.229126,307.433258 295.895844,308.204407 294.569611,308.846191 
	C292.793915,309.705383 289.619843,308.346008 289.347076,311.469818 
	C289.008331,315.348694 287.540588,319.721405 290.708801,322.980743 
	C299.995392,332.534454 309.478210,341.899200 318.990967,351.229034 
	C320.109894,352.326477 321.969574,352.628021 323.348541,353.512573 
	C324.684662,354.369568 325.454865,355.740601 325.011444,357.378632 
	C324.589630,358.937012 323.491821,359.965942 321.818359,360.139526 
	C320.203522,360.307037 318.445282,359.831787 318.045563,358.314178 
	C315.960999,350.399689 308.658600,346.916534 303.811737,341.395081 
	C299.544067,336.533447 294.607117,332.213959 289.672760,327.997955 
	C286.068604,324.918579 284.337982,321.436310 284.632996,316.683441 
	C284.762451,314.598236 285.653076,312.027283 283.199585,310.372009 
	C279.750336,313.978882 279.571533,323.835419 282.803802,327.117828 
	C289.349731,333.765442 295.862183,340.447906 302.515381,346.986847 
	C304.580780,349.016785 305.314514,351.183502 305.407623,354.054962 
	C305.582520,359.448517 304.135437,365.011200 307.044708,370.210052 
	C307.862579,371.671600 307.340515,373.489441 305.636566,374.558868 
	C304.192444,375.465240 302.787445,375.388580 301.447144,374.411285 
	C299.919128,373.297089 299.257782,371.701752 300.140900,370.029663 
	C302.901398,364.803162 301.250824,359.227905 301.646484,353.820312 
	C301.809753,351.588928 300.491760,350.101318 299.039154,348.660553 
	C293.834167,343.498047 288.915741,338.006683 283.380890,333.228241 
	C278.311859,328.852020 275.672699,324.029053 276.539703,317.208099 
	C276.810364,315.078674 278.013397,311.009338 274.802002,310.948700 
	C271.238617,310.881439 272.750153,314.976898 272.310333,317.386597 
	C270.714294,326.131378 273.631409,333.013092 280.828278,338.087341 
	C288.627563,343.586365 290.938171,350.935364 289.571533,360.255432 
	C288.898743,364.843475 288.249695,369.849854 291.046875,374.371490 
	C291.936768,375.809967 291.602966,377.646881 289.964111,378.817169 
	C288.635315,379.766083 287.207458,380.117554 285.798126,379.096985 
	C284.298309,378.010895 283.680847,376.422760 284.343109,374.689972 
	C287.320557,366.899017 285.179626,358.842743 285.687164,350.928497 
	C285.828949,348.717896 284.621124,347.168732 283.144104,345.731628 
	C279.801270,342.479187 276.621490,339.042694 273.113159,335.981628 
	C269.863159,333.145996 267.897797,329.986237 268.701324,325.502808 
	C266.793976,334.944031 267.425507,336.939758 274.245636,343.431152 
	C279.162598,348.111115 279.162598,348.111115 279.779388,351.623138 
	C279.650970,351.721985 279.505341,351.923248 279.396576,351.904999 
	C274.352020,351.059174 264.323578,338.493835 264.447449,333.508820 
	C264.603058,327.247101 264.484955,320.978607 264.484955,314.713013 
	C263.891205,314.695404 263.297424,314.677795 262.703674,314.660156 
	C262.703674,320.951385 262.688873,327.242645 262.714447,333.533752 
	C262.720551,335.031311 263.102509,336.562012 262.898621,338.019745 
	C262.036865,344.181427 264.705505,348.654846 269.447815,352.143219 
	C273.274170,354.957886 274.701904,358.539154 274.394226,363.347015 
	C274.001282,369.487671 274.325104,375.673615 274.319702,381.840027 
	C274.317383,384.496216 274.149597,387.081665 275.936218,389.466187 
	C277.087555,391.002869 277.076294,393.019501 275.417999,394.454407 
	C273.998199,395.682983 272.287018,395.663452 270.794312,394.622955 
	C269.100586,393.442322 268.738831,391.755920 269.386505,389.757507 
	C272.503052,380.141602 270.622620,370.279144 270.459503,360.547119 
	C270.397034,356.820953 266.459656,354.483917 263.720581,352.216614 
	C259.720245,348.905487 258.328400,345.093781 258.579224,340.011108 
	C258.932037,332.861816 258.757477,325.680878 258.632629,318.516541 
	C258.587036,315.900574 259.716736,311.642883 255.802780,311.730499 
	C251.704956,311.822174 253.407578,316.172516 253.386749,318.644592 
	C253.164825,344.975861 253.139893,371.308746 252.991470,397.640778 
	C252.976074,400.374969 253.672882,403.331207 251.385681,405.921051 
	C248.349060,404.270721 249.099945,401.356598 249.084671,398.946777 
	C248.916595,372.449463 248.849747,345.951508 248.752701,319.453705 
	C248.745987,317.620911 248.793762,315.783325 248.676682,313.956879 
	C248.567184,312.248810 248.261093,310.370148 245.980438,310.538361 
	C243.955658,310.687744 243.332413,312.287506 243.330872,314.143097 
	C243.326431,319.476288 243.319504,324.809448 243.320282,330.142639 
	C243.320541,331.975922 243.101822,333.848053 243.392746,335.635803 
	C244.719238,343.787201 242.157852,350.303680 235.470230,355.144379 
	C231.844650,357.768616 230.782654,361.337097 231.145477,365.621368 
	C231.855911,374.009949 229.493713,382.595764 232.832382,390.830566 
	C233.456924,392.370972 232.826157,393.854706 231.472824,394.786835 
	C230.134766,395.708374 228.567795,395.694733 227.220444,394.828278 
	C225.800674,393.915283 225.313675,392.297455 225.880493,390.840729 
	C229.400803,381.793640 227.278458,372.399200 227.536972,363.181702 
	C227.660217,358.787506 228.700516,355.317993 232.117767,352.747070 
	C237.769531,348.495087 240.242630,343.409424 239.197815,335.983063 
	C238.327362,329.795898 239.238968,323.357941 239.362778,317.031067 
	C239.388306,315.726959 239.685181,314.342712 237.952332,313.209381 
	C236.763626,317.415588 237.147095,321.522675 237.727783,325.495697 
	C238.765915,332.598694 237.731812,338.710876 231.419205,343.123627 
	C225.369141,347.352844 223.398972,353.206635 224.226501,360.465759 
	C224.940018,366.724701 223.533386,373.108154 224.967789,379.370972 
	C225.311874,380.873260 224.934250,382.209351 223.294052,382.414764 
	C221.273499,382.667786 220.804291,381.154022 220.812134,379.497131 
	C220.855438,370.341003 220.795944,361.181885 221.023773,352.030090 
	C221.154541,346.777252 225.497528,344.094452 228.727371,340.824829 
	C231.667786,337.848236 235.080536,335.166016 233.890884,330.910187 
	C229.429871,335.419891 224.780640,340.327179 219.888123,344.978638 
	C217.425323,347.320099 215.947250,349.800232 216.178223,353.269073 
	C216.660416,360.511353 214.782974,367.908539 217.825684,374.999023 
	C218.537750,376.658295 217.632263,378.265472 216.037949,379.247559 
	C214.767105,380.030365 213.473709,379.907532 212.289368,379.056366 
	C210.922333,378.073853 210.264435,376.528290 210.880493,375.091003 
	C214.262253,367.201416 212.204636,358.974457 212.457062,350.911865 
	C212.542984,348.167633 213.225037,346.099030 215.110901,344.250275 
	C218.680252,340.751068 222.069382,337.054443 225.792450,333.729980 
	C228.779099,331.063080 230.090866,328.074554 229.767822,324.068146 
	C229.474014,320.424591 229.704910,316.740692 229.640396,313.075714 
	C229.615692,311.673645 229.282318,310.277954 227.458115,310.395294 
	C226.069321,310.484650 225.524567,311.580658 225.426804,312.840271 
	C225.336731,314.000610 225.177567,315.203400 225.374832,316.330444 
	C226.693146,323.863190 223.590103,329.353058 217.942261,334.080688 
	C213.867645,337.491425 210.584122,341.862549 206.445251,345.178009 
	C198.180008,351.798981 199.827362,360.295166 201.210037,368.870758 
	C201.260818,369.185822 201.494461,369.469940 201.634659,369.772278 
	C202.434967,371.498138 202.176437,373.039307 200.708771,374.265991 
	C199.454391,375.314392 198.042587,375.624908 196.565369,374.695648 
	C194.717972,373.533600 194.132172,371.500824 194.988388,369.887573 
	C197.682297,364.811951 196.496445,359.435822 196.589584,354.194427 
	C196.644257,351.118591 197.526611,348.790771 199.690033,346.660156 
	C205.980621,340.464996 212.175659,334.172394 218.377365,327.887634 
	C222.479721,323.730316 222.707245,313.909302 218.677383,309.905243 
	C216.403564,311.682159 217.232941,314.237854 217.436234,316.297882 
	C217.909988,321.098724 215.970642,324.574097 212.638306,327.734833 
	C204.661728,335.300659 196.780594,342.967712 188.912384,350.646667 
	C186.791641,352.716370 184.480499,354.648865 183.954147,357.927460 
	C183.703110,359.491150 182.382263,360.545471 180.641327,360.360016 
	C178.855072,360.169739 177.510025,359.185791 177.018387,357.380920 
	C176.571167,355.739105 177.196976,354.314117 178.583359,353.487701 
	C190.948212,346.117035 199.024353,334.099823 209.686279,324.897156 
	C214.146469,321.047424 212.699402,316.113739 212.632614,311.408447 
	C212.617050,310.312531 211.695602,309.544495 210.593979,309.590881 
	C205.321579,309.812958 202.685593,305.897308 199.323242,302.434967 
M268.476196,259.390411 
	C266.256836,261.066437 265.775604,263.111877 266.127319,265.942688 
	C266.540253,269.265930 267.342285,272.446320 268.048828,275.688171 
	C269.843353,283.921692 267.088379,287.175659 258.730927,287.325287 
	C256.919098,287.357727 254.674210,286.444763 253.561493,288.606903 
	C258.387177,296.900208 267.384857,292.377869 273.819733,295.309143 
	C273.947235,296.989807 272.249268,296.506317 272.129730,296.800262 
	C274.061920,301.024597 277.242432,296.053833 279.745789,298.427216 
	C283.718201,302.193420 288.511841,301.110870 292.852478,299.533875 
	C297.434357,297.869293 296.666351,293.460846 296.628632,289.648682 
	C296.618866,288.662537 296.627136,287.676239 296.627136,286.257629 
	C292.961395,288.851166 291.037598,287.151489 292.096344,283.950775 
	C293.838806,278.682983 291.699799,273.848877 291.568054,268.836243 
	C291.384888,261.864136 291.192963,254.921173 291.320190,247.935837 
	C291.401001,243.501434 291.272278,239.633255 296.071045,236.893829 
	C289.825958,238.191101 292.228912,233.477570 291.381073,231.196136 
	C289.928101,227.286362 296.340851,228.347321 295.805969,224.687836 
	C291.047180,226.754303 287.072906,226.086685 286.354553,222.956421 
	C285.420929,218.888062 288.542206,217.757889 292.360626,216.828873 
	C280.760559,215.298309 279.298248,216.174042 280.352264,223.267914 
	C278.504059,224.199570 276.780945,223.153610 275.016968,222.903259 
	C269.135284,222.068527 263.343964,222.229202 256.282745,224.117050 
	C259.524078,225.562943 261.538269,226.461441 263.624969,227.392273 
	C265.088898,226.717346 265.135712,223.916306 267.421783,224.855148 
	C268.296753,225.214478 268.671600,226.108643 268.364868,226.917877 
	C266.954651,230.638412 269.826721,233.009491 272.082703,233.177307 
	C275.525238,233.433380 280.173004,235.170547 282.407471,230.216614 
	C279.488220,227.454376 274.444733,230.755844 271.853271,226.828964 
	C273.220001,224.765198 274.950378,225.007553 276.567352,225.173416 
	C278.560913,225.377899 280.233429,225.157425 281.728027,223.044662 
	C285.911926,226.614868 289.657410,230.298294 289.429108,236.539322 
	C289.204926,242.667557 289.211456,248.834747 289.633850,254.949127 
	C290.306580,264.687012 290.487946,264.673157 281.104584,264.870422 
	C280.777832,264.877289 280.430328,264.907867 280.130310,265.024597 
	C276.329865,266.503052 276.412292,264.178314 276.487640,261.502869 
	C276.612122,257.083832 276.521454,252.658707 276.521454,248.236145 
	C275.723480,254.803986 273.850128,260.673645 267.556885,265.121246 
	C266.658600,261.868439 268.710846,260.716614 269.497040,258.507629 
	C271.441711,256.064148 272.651642,253.007980 272.338928,250.176544 
	C271.752075,244.863113 275.867584,242.306976 278.430023,238.405685 
	C281.543732,245.776535 279.218689,253.746964 280.764008,261.234009 
	C279.887268,253.257309 282.676941,245.159134 280.184692,237.083206 
	C276.541809,237.416336 273.048920,236.389709 269.007935,238.326019 
	C272.682129,245.249863 271.372955,252.157623 268.476196,259.390411 
M274.582245,194.139801 
	C274.533600,188.178680 274.881409,182.253113 272.948303,176.382843 
	C269.785004,166.776993 261.210358,159.667328 251.761734,159.437836 
	C241.898102,159.198257 232.471848,166.242874 229.319153,176.109222 
	C226.472900,185.016617 227.848587,194.201828 227.339249,203.266113 
	C227.135208,206.897552 228.682892,207.858994 232.009949,207.791153 
	C235.972290,207.710388 240.163010,207.237518 243.787964,209.072769 
	C247.693268,211.049957 251.420013,210.821457 255.368774,209.744705 
	C257.607330,209.134308 259.876923,208.617447 262.155853,208.179810 
	C266.024323,207.436935 270.949890,209.480560 273.641876,206.604980 
	C276.317322,203.747070 273.781281,198.933655 274.582245,194.139801 
M216.415268,238.543579 
	C216.707626,240.292313 215.697662,242.201965 217.048431,243.879425 
	C219.607147,244.764771 222.219666,244.963943 224.900909,244.650314 
	C227.994705,244.288391 229.547318,245.152802 229.074875,248.799622 
	C228.579666,252.622131 230.304810,255.883575 233.601685,259.685883 
	C227.678833,244.068390 231.421555,235.247360 245.601303,229.013000 
	C246.727615,228.517807 248.271027,228.281937 248.352173,225.748154 
	C243.131042,228.127899 238.223999,230.166229 234.556976,234.380554 
	C231.945480,237.381805 229.032166,239.562454 222.962036,237.433212 
	C230.882294,232.192917 237.839127,227.590042 244.795944,222.987167 
	C238.998474,224.221970 229.312134,223.500061 226.463394,220.649353 
	C230.232422,218.610382 234.573318,220.794983 239.325714,218.828125 
	C234.175568,217.883347 229.939209,218.993393 226.212845,217.315033 
	C224.886795,218.116714 225.716492,220.347977 223.331711,220.263733 
	C220.146332,214.443817 214.780655,216.228546 209.644165,216.864243 
	C212.354950,217.599319 215.481888,217.884811 215.683929,221.532806 
	C215.814957,223.898666 214.458954,225.733826 212.074905,226.340515 
	C208.466003,227.258911 207.171585,224.515518 205.767899,220.730728 
	C205.181213,224.714005 205.828964,227.290848 206.213882,230.044113 
	C208.006760,227.633652 209.393112,227.440491 210.053925,230.587341 
	C210.645737,233.405609 209.086868,236.282440 209.499008,238.860870 
	C211.354019,250.466537 209.891235,262.087921 210.172913,273.689117 
	C210.242874,276.571198 210.392273,280.762177 208.704910,282.128815 
	C203.767883,286.127472 205.794235,290.671082 205.824341,296.702545 
	C207.129684,292.967712 207.895889,290.426453 211.059250,290.593170 
	C213.066406,290.698975 214.645767,291.863556 215.072830,293.798157 
	C215.839554,297.271576 213.039581,298.650940 209.731766,300.306549 
	C212.603180,300.447998 214.424774,300.637848 216.241745,300.600830 
	C218.310089,300.558716 220.938126,301.292114 221.695297,298.419250 
	C222.331497,296.005371 222.601639,293.412628 220.011292,291.678101 
	C218.339035,290.558350 217.785248,288.969421 217.682480,286.987030 
	C217.428009,282.078156 216.991287,277.178741 216.605927,271.980408 
	C215.473694,276.119843 217.506821,280.642273 214.461472,284.421021 
	C212.123978,282.559784 212.829132,280.580933 212.789093,278.870880 
	C212.498108,266.442169 212.225708,254.011948 212.118530,241.580704 
	C212.088577,238.107605 212.834045,234.646637 212.204651,231.139282 
	C211.991287,229.950317 212.567688,228.759674 213.952301,228.501740 
	C215.443039,228.224060 215.998825,229.233292 216.253159,230.508667 
	C216.406067,231.275436 216.610489,232.031967 216.767517,232.691269 
	C218.823868,233.071075 220.466156,231.025894 222.362183,232.538834 
	C222.833252,234.208084 222.219788,235.681381 221.731018,236.543900 
	C219.898529,238.534134 217.712112,235.730835 216.415268,238.543579 
M241.237076,246.880508 
	C240.939285,249.115204 241.057037,251.665756 242.728287,252.960175 
	C248.063919,257.092682 246.875259,262.058716 245.336884,267.304047 
	C244.639252,269.682770 244.283234,272.160889 243.752167,274.589508 
	C243.465408,275.900940 242.963684,277.774384 244.521667,278.051849 
	C248.746063,278.804230 253.102631,279.215942 257.280304,277.775665 
	C258.756378,277.266754 258.628784,275.727631 258.296204,274.323822 
	C257.418701,270.619659 256.661255,266.886993 255.775589,263.184937 
	C255.047058,260.139648 255.070694,257.675018 257.765106,255.153183 
	C261.678040,251.490906 261.832520,246.964996 259.038330,242.999863 
	C256.910370,239.980133 254.192810,237.940689 250.252029,238.424515 
	C245.597778,238.995926 242.947433,241.952896 241.237076,246.880508 
M221.095215,275.821350 
	C220.919205,278.870880 220.743195,281.920441 220.548584,285.292389 
	C221.818344,284.007935 222.380066,282.044739 224.265991,282.896515 
	C225.961731,283.662415 225.498749,285.370422 225.443985,286.867340 
	C225.043762,297.806488 225.056198,297.808838 233.904831,297.654968 
	C234.130569,297.651062 234.353531,297.486511 234.491669,297.431305 
	C232.416550,296.451019 229.541336,298.211884 227.337524,295.167206 
	C234.097595,293.197296 240.180771,292.584076 245.807861,297.898529 
	C246.550705,293.927887 242.663315,289.731262 248.304550,287.601685 
	C245.602966,287.297424 243.140060,287.276031 240.677673,287.302063 
	C236.159592,287.349823 233.897400,284.677979 233.492142,280.624908 
	C233.251648,278.219421 233.978302,275.693787 234.419586,273.249146 
	C235.054779,269.730408 235.826050,266.236267 236.539230,262.731628 
	C234.072128,268.585541 233.449722,274.966431 230.176193,280.633026 
	C230.734207,271.330719 233.994827,261.864197 226.104263,253.962936 
	C224.785202,258.836090 224.691223,263.988617 225.637054,268.739075 
	C226.541122,273.279724 224.944168,274.582611 221.095215,275.821350 
M283.512756,190.697662 
	C283.637909,189.781662 284.311005,188.626968 282.794769,188.291367 
	C281.080780,187.912033 280.443542,189.027603 280.092957,190.477737 
	C278.751526,196.026688 279.179993,201.609009 279.377747,207.273407 
	C282.060272,207.775391 284.364838,207.849747 287.292297,207.156296 
	C281.409027,204.571747 279.598755,195.879074 283.512756,190.697662 
M217.144608,207.735107 
	C218.914185,207.735107 220.683777,207.735107 222.877487,207.735107 
	C222.212021,206.249756 221.577209,205.304108 221.378265,204.274261 
	C221.105118,202.860367 220.714081,201.743057 219.106018,201.520157 
	C217.587738,201.309708 216.399109,201.989624 216.009644,203.347305 
	C215.604584,204.759399 213.382889,206.575821 217.144608,207.735107 
M231.844879,161.683456 
	C232.793259,160.584610 234.205856,159.552902 232.146088,157.811478 
	C227.719177,159.111572 228.310532,165.385727 223.799515,166.705826 
	C223.241470,166.869125 223.484451,168.267227 224.312454,168.776855 
	C225.383789,169.436264 226.129807,168.897369 226.803925,168.006638 
	C228.300339,166.029373 229.849030,164.091690 231.844879,161.683456 
M202.258652,244.390381 
	C202.380875,246.443573 201.419418,249.154922 205.146683,249.251083 
	C206.028702,247.089935 206.637329,244.993134 205.137512,243.165329 
	C204.353210,242.209503 203.049301,242.337265 202.258652,244.390381 
M219.757919,177.343323 
	C219.085251,180.032104 219.270645,182.701920 220.126495,185.389999 
	C220.776337,182.387680 220.803391,179.366318 220.747314,176.346481 
	C220.738861,175.890533 220.323380,175.888428 220.084076,176.338379 
	C220.007782,176.481827 219.962952,176.642014 219.757919,177.343323 
z"/>
<path fill="#000000" opacity="1.000000" stroke="none" 
	d="
M348.023804,123.294678 
	C348.460175,125.482620 348.091492,127.033745 346.339813,127.914276 
	C335.200928,133.513565 328.568451,144.094589 319.708038,152.205353 
	C316.945282,154.734344 316.830017,158.626144 320.599152,161.223190 
	C322.834717,162.763596 323.817017,164.587860 322.585480,167.138931 
	C321.872009,168.616852 320.531860,169.431000 318.884521,169.042267 
	C316.028137,168.368225 315.671265,166.156281 315.667847,163.622879 
	C315.663635,160.474106 315.538300,157.310440 315.200806,154.181732 
	C314.908997,151.477234 316.401581,149.787857 318.058228,148.132889 
	C323.826233,142.370758 329.623352,136.637711 335.418488,130.902786 
	C337.654083,128.690399 339.704651,126.530998 340.967285,123.402847 
	C342.491638,119.626343 345.330109,119.850494 348.023804,123.294678 
z"/>
<path fill="#000000" opacity="1.000000" stroke="none" 
	d="
M350.910278,137.897827 
	C346.533936,142.258636 342.408813,146.367447 338.271271,150.463715 
	C336.262054,152.452896 334.202179,154.341507 333.504486,157.308975 
	C333.021301,159.364090 331.400818,160.279922 329.317322,159.946365 
	C327.467529,159.650238 326.401123,158.340912 326.116760,156.557388 
	C325.781403,154.454269 327.010742,153.110016 328.704132,152.139236 
	C339.633911,145.873489 348.170624,137.136276 354.975220,126.633652 
	C356.056244,124.965126 357.299500,123.690643 359.384308,124.099083 
	C360.982178,124.412125 361.993011,125.597343 362.139801,127.257408 
	C362.320404,129.299759 361.459595,131.078842 359.500763,131.571381 
	C355.831635,132.493942 353.716522,135.323685 350.910278,137.897827 
z"/>
<path fill="#000000" opacity="1.000000" stroke="none" 
	d="
M146.983063,214.463593 
	C145.871429,216.897354 144.087646,218.121338 142.022217,217.192429 
	C134.518143,213.817474 126.680969,215.753738 118.995033,215.383896 
	C117.422112,215.308228 115.612465,216.039429 114.659363,213.937439 
	C115.118294,211.296005 117.284332,211.842697 118.953705,211.802887 
	C123.928368,211.684280 128.906662,211.712494 133.883575,211.695816 
	C136.206924,211.688019 138.386963,211.474182 140.617416,210.430573 
	C144.124634,208.789581 146.834427,209.516617 146.983063,214.463593 
z"/>
<path fill="#000000" opacity="1.000000" stroke="none" 
	d="
M356.767212,216.460327 
	C354.993530,214.760773 354.348297,213.172699 355.685150,211.323120 
	C356.798401,209.782852 358.627808,209.138977 360.121185,209.872406 
	C366.967163,213.234695 374.219971,211.107239 381.251770,211.754776 
	C383.166534,211.931122 385.227295,211.399750 387.133362,212.993561 
	C386.230957,215.346848 384.304016,215.113724 382.602295,215.143204 
	C377.439331,215.232681 372.226135,215.700058 367.127899,215.144531 
	C363.465027,214.745361 360.757111,218.575211 356.767212,216.460327 
z"/>
<path fill="#000000" opacity="1.000000" stroke="none" 
	d="
M259.685791,390.940216 
	C259.056458,384.313599 261.145203,377.947418 257.619751,372.004272 
	C256.324585,369.820923 257.950806,367.719543 260.358093,367.108276 
	C262.836365,366.478943 264.777649,368.291992 264.153503,370.322754 
	C261.248138,379.776093 263.894989,389.449158 262.530090,398.916748 
	C262.448273,399.484344 261.901031,399.984833 261.341370,400.884705 
	C258.358337,397.866180 260.230652,394.418976 259.685791,390.940216 
z"/>
<path fill="#000000" opacity="1.000000" stroke="none" 
	d="
M379.212402,250.992737 
	C376.240845,253.005814 372.985535,252.399872 369.921173,252.854843 
	C366.686066,253.335190 363.331604,252.709244 360.293304,254.689407 
	C358.740051,255.701706 357.037842,254.867615 355.895966,253.447357 
	C354.762878,252.038055 354.398865,250.437347 355.589081,248.874908 
	C356.643799,247.490280 358.241882,246.163101 359.834625,247.064697 
	C364.976685,249.975372 370.527985,248.695160 375.909424,249.125748 
	C377.212891,249.230057 378.628265,249.117981 379.212402,250.992737 
z"/>
<path fill="#000000" opacity="1.000000" stroke="none" 
	d="
M128.063797,249.601074 
	C132.977570,248.704880 137.748093,249.509506 142.032120,247.053909 
	C143.677048,246.111023 145.170273,247.474686 146.245712,248.846771 
	C147.280197,250.166595 147.376236,251.589325 146.443985,252.994644 
	C145.463165,254.473175 143.890884,255.855133 142.313034,254.953644 
	C137.102036,251.976364 131.210327,253.630142 125.834129,252.097366 
	C125.227226,251.924347 124.673218,251.565811 123.959496,251.229614 
	C124.626793,248.996796 126.431122,249.984253 128.063797,249.601074 
z"/>
<path fill="#000000" opacity="1.000000" stroke="none" 
	d="
M234.314331,117.910065 
	C233.304947,116.624626 232.194656,115.692101 232.954819,114.160583 
	C243.176102,114.660072 244.945496,131.078018 241.047195,139.807404 
	C237.875351,137.205933 238.974197,133.680115 238.952225,130.635712 
	C238.917953,125.888550 239.047134,121.256554 234.314331,117.910065 
z"/>
<path fill="#000000" opacity="1.000000" stroke="none" 
	d="
M262.997192,98.380608 
	C262.876617,102.135010 263.256226,105.338066 264.136932,108.576607 
	C264.736603,110.781609 263.857178,113.040031 261.007416,113.131783 
	C258.660461,113.207336 256.652222,111.317368 257.435577,109.437485 
	C259.484222,104.521172 258.504669,99.072731 260.326477,94.171509 
	C263.045593,94.492043 262.663818,96.434723 262.997192,98.380608 
z"/>
<path fill="#000000" opacity="1.000000" stroke="none" 
	d="
M241.437256,378.994019 
	C238.936539,377.438629 239.988541,375.101959 239.837158,373.082886 
	C239.581451,369.672424 240.221146,366.242065 238.204269,362.990936 
	C237.060181,361.146759 237.194061,358.712952 239.379288,357.266937 
	C240.895386,356.263763 242.594482,356.444672 243.937790,357.716797 
	C245.638901,359.327728 245.597946,361.243530 244.384995,363.111542 
	C241.199417,368.017609 243.478180,373.802612 241.437256,378.994019 
z"/>
<path fill="#000000" opacity="1.000000" stroke="none" 
	d="
M131.957855,185.081223 
	C137.038742,182.073257 142.932877,183.539291 148.264542,181.531189 
	C150.680862,180.621140 151.360352,183.269165 151.389648,185.450974 
	C151.424606,188.053848 149.097458,189.874207 147.700546,188.897552 
	C142.803986,185.474152 137.042999,187.282806 131.957855,185.081223 
z"/>
<path fill="#000000" opacity="1.000000" stroke="none" 
	d="
M361.127197,182.976990 
	C364.279053,183.317810 367.253479,182.392899 369.603363,184.647507 
	C368.820679,187.014923 366.872314,186.213013 365.388641,186.276093 
	C362.097839,186.416031 358.727692,185.880035 356.072876,188.682358 
	C354.826080,189.998398 353.382965,189.562042 352.092468,188.418365 
	C350.654633,187.144119 350.531616,185.543762 350.894897,183.852219 
	C351.293579,181.995895 352.814087,181.574890 354.355225,181.748428 
	C356.481628,181.987808 358.572968,182.538605 361.127197,182.976990 
z"/>
<path fill="#000000" opacity="1.000000" stroke="none" 
	d="
M244.416901,422.742096 
	C237.651810,418.642273 229.958847,416.818359 223.939636,411.404755 
	C226.836197,409.121735 228.463333,410.945129 230.088409,411.707733 
	C235.343842,414.173889 240.567078,416.721436 245.698486,419.434692 
	C249.256195,421.315887 252.612091,421.252045 256.146912,419.474701 
	C261.630951,416.717224 267.156464,414.039124 272.713013,411.430908 
	C274.229828,410.718933 275.781830,409.171021 277.725037,410.830505 
	C277.724976,413.460449 275.460205,413.862091 273.808746,414.707306 
	C268.342987,417.504547 262.704254,419.983093 257.353546,422.979645 
	C252.990555,425.422974 248.939560,425.721832 244.416901,422.742096 
z"/>
<path fill="#000000" opacity="1.000000" stroke="none" 
	d="
M221.722534,228.262878 
	C219.513748,228.455444 217.225891,229.037811 217.150574,226.302429 
	C217.081619,223.798325 219.226974,223.509827 221.127502,223.866684 
	C224.251511,224.453308 227.651855,223.997498 230.842957,226.071609 
	C228.326950,229.554733 224.799286,227.177261 221.722534,228.262878 
z"/>
<path fill="#000000" opacity="1.000000" stroke="none" 
	d="
M271.532227,270.671997 
	C275.000275,272.285858 277.962769,271.972321 280.606842,269.634491 
	C281.844818,268.539886 283.152222,267.882904 284.574707,269.167419 
	C285.652466,270.140625 285.865479,271.462097 285.415924,272.846313 
	C284.876465,274.507233 283.607178,275.262482 281.971252,275.142426 
	C279.990051,274.997101 278.034180,274.499847 276.052979,274.362793 
	C274.329926,274.243652 272.502167,274.442169 272.544403,276.818146 
	C272.580688,278.862701 273.938232,279.620575 275.865662,279.750122 
	C280.125427,280.036438 284.447723,279.140503 289.300720,280.338135 
	C287.691406,282.426056 286.700562,284.430908 289.252991,285.986755 
	C279.648682,294.583191 268.930603,291.229675 258.523224,290.627075 
	C261.041016,286.419952 265.211060,288.938354 268.104462,287.555664 
	C271.468292,282.675018 269.429993,277.872162 268.508179,273.036072 
	C268.140350,271.106476 267.003052,267.749420 271.532227,270.671997 
M272.405029,287.494659 
	C275.660370,287.101654 276.692902,282.244659 279.380615,283.334625 
	C277.445496,283.665588 273.009949,281.184845 272.405029,287.494659 
z"/>
<path fill="#000000" opacity="1.000000" stroke="none" 
	d="
M295.150421,294.185425 
	C294.572968,297.707428 293.233704,300.028503 289.533234,298.564240 
	C287.765167,297.864624 286.663666,296.296692 286.892731,294.219055 
	C287.087463,292.453156 287.985962,290.934296 289.741669,290.545349 
	C292.397675,289.956940 294.148682,291.328613 295.150421,294.185425 
z"/>
<path fill="#000000" opacity="1.000000" stroke="none" 
	d="
M238.172729,291.351959 
	C235.091690,291.219269 233.075165,290.301788 232.497635,286.458313 
	C236.291138,288.332458 240.289154,287.323822 243.714020,289.513367 
	C242.217697,292.049652 240.213058,291.067261 238.172729,291.351959 
z"/>
</svg>